<svg width="2500" height="2500" viewBox="0 0 2500 2500" fill="none" xmlns="http://www.w3.org/2000/svg">
<g id="Wave Impact Capital Group Logo">
<circle id="sky" cx="1250" cy="1250" r="1250" fill="#233D89"/>
<path id="sand-dunes" d="M2336.5 1591L2406 1719.5L2402.5 1732L2391 1760L2380.5 1784.5L2361.5 1822.5L2345.5 1851.5L2323.5 1888L2301 1913L2286 1930L2266 1952.5L2234 1978.5L2212.5 1996L2185 2016L2153.5 2034.5L2117.5 2054L2075.5 2071.5L2027 2088.5L1982.5 2101L1938 2109L1886 2114.5L1843.5 2117L1782.5 2114.5L1739.5 2109L1700 2101L1663 2092L1624.5 2079.5L1588.5 2065L1562.5 2053.5L1529.5 2036L1493.5 2015.5L1443 1979L1419.5 1956.5L1398 1937L1381 1921L1366 1904.5L1984 1590.5L2060.5 1738L2336.5 1591Z" fill="#F8F1C9"/>
<path id="light-blue-wave" d="M2187 984L2227.5 1041L2197.5 1013.5L2164.5 988L2134 967.5L2100 946.5L2067 929L2038 916L1998 901.5L1945 884L1891 874L1841.5 867H1807.5H1760L1703.5 871.5L1646 884L1592 898.5L1535 923.5L1481.5 952L1442 979L1399.5 1012L1356.5 1052.5L1328.5 1086L1300 1123.5L1278.5 1155.5L1254.5 1201.5L1239 1235L1221 1288.5L1212.5 1322L1203.5 1363L1197 1408L1194 1447.5V1499L1200 1552.5L1208 1598.5L1219 1643L1233.5 1689.5L1252 1734.5L1274.5 1778L1304 1827.5L1345.5 1881L1372 1911.5L1409 1947L1454.5 1988.5L1503 2021L1560 2053L1626.5 2081L1685.5 2097.5L1739 2108.5L1793.5 2115L1852.5 2117L1912.5 2112L1964.5 2105.5L2024.5 2089.5L2076 2071.5L2130.5 2048L2166 2028.5L2203.5 2002L2239.5 1974.5L2277.5 1940.5L2324.5 1884L2312 1908.5L2297.5 1931.5L2279.5 1957.5L2259.5 1984L2232.5 2025.5L2212.5 2052L2185.5 2082.5L2153 2114.5L2125.5 2140.5L2098 2163.5L2071.5 2183L2031 2209.5L1985 2236.5L1927 2263L1874.5 2283.5L1808 2303L1757 2312.5L1693.5 2320.5L1635 2322.5L1581 2320.5L1524 2317.5L1462.5 2307L1407 2293L1348 2276L1282.5 2250L1230 2224.5L1181.5 2198L1130.5 2165.5L1066 2117.5L1025.5 2082L978.5 2035L939.5 1990.5L899 1938.5L863.5 1887L830.5 1830.5L802 1772L773.5 1698.5L755 1638L743 1588.5L733.5 1542.5L728 1494L723.5 1442V1390.5L725.5 1351.5L730.5 1299.5L737.5 1254.5L747.5 1204.5L759 1164.5L776 1117L792.5 1077.5L805.5 1050L824 1013.5L854.5 963L883.5 924.5L913.5 886.5L952.5 846L990.5 811L1034 777.5L1067.5 754.5L1104.5 732.5L1146.5 709L1193.5 688.5L1239 673L1282 659.5L1341 646.5L1388 638.5L1443.5 634.5L1491 632.5L1527.5 634.5L1575 638.5L1627.5 646.5L1677 656L1722.5 668.5L1763 681.5L1808 697.5L1782.5 681.5L1748.5 663L1706.5 640.5L1656 618.5L1592.5 594L1533.5 576.5L1480.5 563.5L1428.5 554.5L1367 547L1309 544H1257L1210.5 547L1156 553.5L1106.5 563.5L1057.5 576.5L1007 593L957.5 613L907 638L859 666L813 697.5L775 728.5L742 758.5L713.5 787.5L690 815L667 842.5L643 875.5L621.5 909.5L602 943L579 989L564.5 1023L548 1066.5L533 1115L517.5 1180.5L507.5 1242.5L502.5 1297V1344V1398.5L506 1445.5L513.5 1508L527 1570L538.5 1617.5L552 1659.5L576.5 1730.5L603 1788.5L635.5 1851.5L664 1899.5L692 1940.5L729 1992L769 2039L807.5 2082.5L862 2135L911 2176L965.5 2217L1020.5 2253L1086 2290L1133.5 2313L1184 2334L1227.5 2351L1281 2366.5L1320 2377L1360 2385.5L1407 2392L1440 2397.5L1475 2399.5H1509H1555.5L1605.5 2397.5L1650 2392L1698.5 2382.5L1747 2372.5L1789.5 2358.5L1833.5 2343L1879 2322.5L1927 2300.5L1901.5 2317L1867 2337.5L1827.5 2358.5L1780 2382.5L1738 2401.5L1689 2422L1611 2447L1559.5 2461.5L1509 2474L1445.5 2485L1385 2493L1310 2500H1250.5H1198L1131.5 2496L1048 2485.5L956 2466.5L875 2445L808.5 2422L755 2400.5L684 2368L615 2329.5L565.5 2299.5L504 2256L424 2193L366.5 2139L328 2095L289 2053L246 1999L198.5 1932L153 1854.5L117.5 1783.5L96.5 1736L76 1683L56 1623L37 1560.5L23.5 1498L13.5 1441.5L3 1354.5L0.5 1304.5V1236L3 1171L7 1105.5L18.5 1024.5L36 948L60 863L96 765.5L130 695.5L167 623.5L204 564L263 483L302.5 433.5L343 390L400 331L455 284.5L515.5 237L591.5 186L654 151L701.5 136.5L795 102.5L880.5 81L951 70L1036 60H1070.5L1158 62.5L1242.5 71L1312.5 85L1390.5 104.5L1470.5 133.5L1544.5 166L1638.5 217.5L1712 269L1782 326L1842 384L1894 443.5C1894 443.5 1935.5 499 1953 524.5C1970.5 550 1983.15 569.863 1998 598.5L2032 662.5L2059.5 729.5L2088.5 814L2109 898L2134 923L2187 984Z" fill="#6D9EEB"/>
<path id="dark-blue-wave" d="M1778 678.5L1809.5 698.5L1772 685L1739 673.5L1688.5 658.5L1625.5 646L1564.5 638.5L1509.5 633H1468.5L1423 635.5L1368.5 642.5L1308.5 652.5L1255 667L1198.5 686.5L1153 706.5L1110 729.5L1064 757L1018 789.5L987 814L945 854L912.5 889.5L886.5 919.5L860.5 954L832.5 998.5L807.5 1043L790.5 1080.5L773 1122.5L758.5 1167.5L746 1215L736.5 1259.5L729.5 1300.5L724.5 1356.5L722.5 1399.5L724.5 1454.5L729.5 1505L737.5 1565L751.5 1624.5L767 1680.5L788 1736.5L808.5 1785L842.5 1852L884 1916.5L925 1973L964.5 2020L1008.5 2065L1051 2104L1106.5 2147.5L1167 2189.5L1220.5 2221L1263 2241L1306 2260.5L1360.5 2280L1411 2295L1484.5 2311L1545.5 2319.5L1602 2322.5H1666L1724 2317L1790.5 2306L1850.5 2291.5L1899 2274L1962 2248L2017.5 2218L2061 2189.5L2093.5 2167.5L2129 2138L2102.5 2163.5L2081 2183.5L2053 2207.5L2021 2234.5L1988 2259L1953.5 2282.5L1930 2296.5L1899 2311.5L1867.5 2328.5L1828.5 2344.5L1784.5 2361L1747 2372.5L1706.5 2382.5L1663 2390.5L1612.5 2397.5L1563 2401.5H1515.5L1444.5 2397.5L1408 2393.5L1360.5 2386L1308.5 2375L1236 2353.5L1184.5 2334.5L1119 2305.5L1064 2278.5L1008.5 2246.5L963 2215.5L902.5 2168.5L854.5 2128L814.5 2088.5L763 2032.5L721 1982L688.5 1934.5L656.5 1887L617 1817.5L588.5 1758L559.5 1685L538 1616L521.5 1544.5L509.5 1478.5L504 1410.5L502 1331.5L504 1273L511 1215L520 1166L531.5 1120.5L547.5 1067L562.5 1026L592 964L622.5 908.5L648.5 867.5L679 828L711 791.5L742 759L782.5 723.5L820.5 692.5L862.5 663.5L915 634L956 613.5L1002 594L1046 580L1097.5 565.5L1146 556L1194 548L1229.5 546L1273.5 544H1313.5L1355.5 546L1382 548L1403 551L1471 562.5L1533.5 577.5L1585 591L1648 614.5L1698.5 636L1742 658.5L1778 678.5Z" fill="#233D89"/>
</g>
</svg>
